<svg width="32" height="32" viewBox="0 0 32 32" fill="none" xmlns="http://www.w3.org/2000/svg">
<path d="M16 0C7.21187 0 0 7.21187 0 16C0 24.7881 7.21187 32 16 32C24.7881 32 32 24.7881 32 16C32 7.21187 24.7881 0 16 0ZM17.6424 20.0241C15.639 21.8454 12.5583 21.7721 10.6438 19.8576L8.38282 17.5967C7.65066 16.8645 7.65066 15.6775 8.38282 14.9453C9.11497 14.2132 10.302 14.2132 11.0342 14.9453L12.0007 15.9119C13.2243 17.1354 15.1931 17.1823 16.4735 16.0183L21.7889 11.1864C22.555 10.49 23.7406 10.5463 24.4372 11.3122C25.1341 12.0783 25.0778 13.2644 24.3114 13.9611L17.6424 20.0241Z" fill="url(#paint0_linear_374_814)"/>
<defs>
<linearGradient id="paint0_linear_374_814" x1="0" y1="16" x2="33.3217" y2="16" gradientUnits="userSpaceOnUse">
<stop stop-color="#E88540"/>
<stop offset="1" stop-color="#E37918"/>
</linearGradient>
</defs>
</svg>
