<svg width="36" height="36" viewBox="0 0 36 36" fill="none" xmlns="http://www.w3.org/2000/svg">
<path fill-rule="evenodd" clip-rule="evenodd" d="M9.80414 29.9575C9.4036 29.5572 9.4036 28.9078 9.80414 28.5075C10.2044 28.107 10.8538 28.107 11.2541 28.5075L12.7675 30.0209C13.3999 30.6533 14.4253 30.6533 15.0577 30.0208C15.6901 29.3884 15.6901 28.3631 15.0577 27.7307L12.5775 25.2505C12.1772 24.85 12.1772 24.2008 12.5775 23.8003C12.9781 23.4 13.6272 23.4 14.0277 23.8003L16.5078 26.2805C17.1402 26.913 18.1656 26.913 18.798 26.2805C19.4304 25.6481 19.4304 24.6228 18.798 23.9904L17.2844 22.4769C16.8842 22.0764 16.8842 21.4272 17.2844 21.0269C17.685 20.6264 18.3341 20.6264 18.7347 21.0269L20.2481 22.5403C20.8805 23.1728 21.9059 23.1727 22.5383 22.5403C23.1707 21.9078 23.1706 20.8825 22.5382 20.2501L20.0581 17.77C19.6578 17.3694 19.6578 16.7203 20.0581 16.3197C20.4586 15.9195 21.1078 15.9195 21.5083 16.3197L23.9884 18.8C24.6208 19.4325 25.6462 19.4324 26.2786 18.8C26.9109 18.1675 26.9109 17.1423 26.2785 16.5099L24.765 14.9963C24.3647 14.5958 24.3647 13.9467 24.765 13.5461C25.1655 13.1458 25.815 13.1458 26.2152 13.5461L27.7286 15.0597C28.3611 15.6922 29.3865 15.6922 30.0189 15.0597C30.6512 14.4273 30.6512 13.402 30.0188 12.7696L27.5386 10.2894C27.1384 9.88887 27.1384 9.23973 27.5386 8.83918C27.9392 8.43864 28.5883 8.43864 28.9889 8.83918L29.5989 9.44923C31.2641 11.1146 33.9641 11.1146 35.6294 9.44934C35.8296 9.24907 35.9298 8.98658 35.9298 8.72436C35.9298 8.46187 35.8296 8.19938 35.6294 7.99911L28.862 1.23205C28.4618 0.831505 27.8123 0.831505 27.4121 1.23205L1.2301 27.414C0.829551 27.8143 0.829551 28.4637 1.2301 28.864L7.99742 35.6313C8.3977 36.0318 9.04711 36.0318 9.44739 35.6313L9.80414 35.2746C11.2724 33.8063 11.2724 31.4257 9.80414 29.9575ZM2.43146 9.68442C3.09877 10.3519 4.18083 10.3519 4.84821 9.68456L9.68184 4.85092C10.3493 4.18344 10.3493 3.10125 9.68184 2.43377C7.68286 0.434792 4.43018 0.434792 2.43146 2.43404C1.46295 3.40229 0.929688 4.68964 0.929688 6.05923C0.929688 7.42856 1.46295 8.71617 2.43146 9.68442ZM6.53995 13.7927C5.73908 12.9918 5.73908 11.6934 6.53995 10.8925C7.34082 10.0916 8.63928 10.0916 9.44015 10.8925L10.6957 12.1481C11.4966 12.9489 11.4966 14.2474 10.6957 15.0483C9.89486 15.8491 8.59639 15.8491 7.79552 15.0483L6.53995 13.7927ZM13.7907 6.54181C12.9899 5.74098 11.6914 5.741 10.8906 6.54185C10.0897 7.34274 10.0897 8.64124 10.8906 9.44211L12.1461 10.6975C12.947 11.4983 14.2454 11.4983 15.0463 10.6975C15.8472 9.89657 15.8471 8.59807 15.0462 7.7972L13.7907 6.54181ZM25.9624 31.764C25.9624 31.764 25.9624 31.764 25.9624 31.7641C25.9623 31.7642 25.9623 31.7642 25.9622 31.7642L25.9622 31.7643C25.9621 31.7643 25.9621 31.7643 25.962 31.7643L25.8898 31.8366C25.6978 32.0287 25.7647 32.3544 26.0168 32.4552L34.5241 35.8581C34.6475 35.9075 34.7765 35.9315 34.9046 35.9315C35.1717 35.9315 35.4339 35.8271 35.6299 35.6311C35.9199 35.3411 36.0091 34.9061 35.8569 34.5251L34.8839 32.0926C33.6328 28.9648 29.5911 28.1352 27.2091 30.5173L25.9624 31.764ZM24.7136 26.1651C23.9127 25.3641 22.6142 25.3641 21.8133 26.165C21.0125 26.9659 21.0125 28.2643 21.8133 29.0652L22.3365 29.5884C23.1374 30.3893 24.4359 30.3894 25.2368 29.5885C26.0376 28.7876 26.0376 27.4892 25.2368 26.6883L24.7136 26.1651ZM26.1631 24.7158C25.3622 23.9149 25.3621 22.6164 26.163 21.8155C26.9638 21.0146 28.2624 21.0145 29.0633 21.8154L29.5865 22.3387C30.3874 23.1396 30.3874 24.4381 29.5865 25.2389C28.7857 26.0398 27.4872 26.0398 26.6863 25.239L26.1631 24.7158Z" fill="url(#paint0_linear_374_789)"/>
<defs>
<linearGradient id="paint0_linear_374_789" x1="0.929688" y1="18.4317" x2="37.3758" y2="18.4317" gradientUnits="userSpaceOnUse">
<stop stop-color="#E88540"/>
<stop offset="1" stop-color="#E37918"/>
</linearGradient>
</defs>
</svg>
