<svg width="17" height="20" viewBox="0 0 17 20" fill="none" xmlns="http://www.w3.org/2000/svg">
<path d="M8.09931 0C3.63332 0 0 3.63332 0 8.09931C0 9.94212 0.603907 11.6776 1.74646 13.1182C3.22585 14.9835 7.52795 19.4123 7.71034 19.5999C7.92334 19.819 8.2752 19.819 8.48823 19.6C8.67072 19.4123 12.9741 14.9825 14.4537 13.1166C15.5953 11.6771 16.1986 9.94222 16.1986 8.09931C16.1986 3.63332 12.5653 0 8.09931 0ZM13.6036 12.4424C10.8401 15.9273 5.36029 15.9287 2.59655 12.444C1.60769 11.1971 1.08499 9.69479 1.08499 8.09931C1.08499 4.23158 4.23158 1.08499 8.09931 1.08499C11.967 1.08499 15.1136 4.23158 15.1136 8.09931C15.1136 9.6949 14.5914 11.1967 13.6036 12.4424Z" fill="url(#paint0_linear_374_738)"/>
<path d="M8.09895 3.21521C5.45536 3.21521 3.30469 5.36588 3.30469 8.00947C3.30469 10.6531 5.45541 12.8037 8.09895 12.8037C10.7425 12.8037 12.8932 10.653 12.8932 8.00947C12.8932 5.36594 10.7425 3.21521 8.09895 3.21521ZM8.09895 11.7187C6.05363 11.7187 4.38968 10.0547 4.38968 8.00947C4.38968 5.96415 6.05368 4.3002 8.09895 4.3002C10.1442 4.3002 11.8082 5.9642 11.8082 8.00947C11.8082 10.0548 10.1443 11.7187 8.09895 11.7187Z" fill="url(#paint1_linear_374_738)"/>
<defs>
<linearGradient id="paint0_linear_374_738" x1="16.1986" y1="10" x2="0.390328" y2="10" gradientUnits="userSpaceOnUse">
<stop stop-color="#FF8D4D"/>
<stop offset="1" stop-color="#FFB763"/>
</linearGradient>
<linearGradient id="paint1_linear_374_738" x1="12.8932" y1="8.00947" x2="3.53574" y2="8.00947" gradientUnits="userSpaceOnUse">
<stop stop-color="#FF8D4D"/>
<stop offset="1" stop-color="#FFB763"/>
</linearGradient>
</defs>
</svg>
