<svg width="204" height="40" viewBox="0 0 204 40" fill="none" xmlns="http://www.w3.org/2000/svg">
<path d="M18.0979 5.8541C18.8816 3.44208 19.2735 2.23607 20 2.23607C20.7265 2.23607 21.1184 3.44208 21.9021 5.8541L24.0413 12.4377C24.2579 13.1044 24.3662 13.4377 24.629 13.6287C24.8919 13.8197 25.2424 13.8197 25.9434 13.8197H32.8658C35.4019 13.8197 36.67 13.8197 36.8945 14.5106C37.119 15.2016 36.0931 15.947 34.0413 17.4377L28.441 21.5066C27.8739 21.9186 27.5903 22.1246 27.4899 22.4336C27.3895 22.7426 27.4978 23.076 27.7145 23.7426L29.8536 30.3262C30.6373 32.7383 31.0292 33.9443 30.4414 34.3713C29.8536 34.7984 28.8277 34.053 26.7759 32.5623L21.1756 28.4934C20.6085 28.0814 20.3249 27.8754 20 27.8754C19.6751 27.8754 19.3915 28.0814 18.8244 28.4934L13.2241 32.5623C11.1723 34.053 10.1464 34.7984 9.55862 34.3713C8.97084 33.9443 9.36269 32.7383 10.1464 30.3262L12.2855 23.7426C12.5022 23.076 12.6105 22.7426 12.5101 22.4336C12.4097 22.1246 12.1261 21.9186 11.559 21.5066L5.95867 17.4377C3.90688 15.947 2.88098 15.2016 3.1055 14.5106C3.33001 13.8197 4.59809 13.8197 7.13424 13.8197H14.0566C14.7576 13.8197 15.1081 13.8197 15.371 13.6287C15.6338 13.4377 15.7421 13.1044 15.9587 12.4377L18.0979 5.8541Z" fill="url(#paint0_linear_374_767)"/>
<path d="M72.6448 5.8541C73.4285 3.44208 73.8203 2.23607 74.5469 2.23607C75.2734 2.23607 75.6653 3.44208 76.449 5.8541L78.5881 12.4377C78.8047 13.1044 78.913 13.4377 79.1759 13.6287C79.4388 13.8197 79.7893 13.8197 80.4902 13.8197H87.4126C89.9488 13.8197 91.2169 13.8197 91.4414 14.5106C91.6659 15.2016 90.64 15.947 88.5882 17.4377L82.9879 21.5066C82.4208 21.9186 82.1372 22.1246 82.0368 22.4336C81.9364 22.7426 82.0447 23.076 82.2613 23.7426L84.4005 30.3262C85.1842 32.7383 85.576 33.9443 84.9883 34.3713C84.4005 34.7984 83.3746 34.053 81.3228 32.5623L75.7224 28.4934C75.1553 28.0814 74.8718 27.8754 74.5469 27.8754C74.222 27.8754 73.9384 28.0814 73.3713 28.4934L67.771 32.5623C65.7192 34.053 64.6933 34.7984 64.1055 34.3713C63.5177 33.9443 63.9096 32.7383 64.6933 30.3262L66.8324 23.7426C67.049 23.076 67.1573 22.7426 67.0569 22.4336C66.9565 22.1246 66.673 21.9186 66.1059 21.5066L60.5055 17.4377C58.4538 15.947 57.4279 15.2016 57.6524 14.5106C57.8769 13.8197 59.145 13.8197 61.6811 13.8197H68.6035C69.3045 13.8197 69.655 13.8197 69.9178 13.6287C70.1807 13.4377 70.289 13.1044 70.5056 12.4377L72.6448 5.8541Z" fill="url(#paint1_linear_374_767)"/>
<path d="M127.188 5.8541C127.971 3.44208 128.363 2.23607 129.09 2.23607C129.816 2.23607 130.208 3.44208 130.992 5.8541L133.131 12.4377C133.348 13.1044 133.456 13.4377 133.719 13.6287C133.982 13.8197 134.332 13.8197 135.033 13.8197H141.956C144.492 13.8197 145.76 13.8197 145.984 14.5106C146.209 15.2016 145.183 15.947 143.131 17.4377L137.531 21.5066C136.964 21.9186 136.68 22.1246 136.58 22.4336C136.479 22.7426 136.588 23.076 136.804 23.7426L138.943 30.3262C139.727 32.7383 140.119 33.9443 139.531 34.3713C138.943 34.7984 137.918 34.053 135.866 32.5623L130.265 28.4934C129.698 28.0814 129.415 27.8754 129.09 27.8754C128.765 27.8754 128.481 28.0814 127.914 28.4934L122.314 32.5623C120.262 34.053 119.236 34.7984 118.648 34.3713C118.061 33.9443 118.453 32.7383 119.236 30.3262L121.375 23.7426C121.592 23.076 121.7 22.7426 121.6 22.4336C121.499 22.1246 121.216 21.9186 120.649 21.5066L115.049 17.4377C112.997 15.947 111.971 15.2016 112.195 14.5106C112.42 13.8197 113.688 13.8197 116.224 13.8197H123.146C123.847 13.8197 124.198 13.8197 124.461 13.6287C124.724 13.4377 124.832 13.1044 125.049 12.4377L127.188 5.8541Z" fill="url(#paint2_linear_374_767)"/>
<path d="M181.735 5.8541C182.518 3.44208 182.91 2.23607 183.637 2.23607C184.363 2.23607 184.755 3.44208 185.539 5.8541L187.678 12.4377C187.895 13.1044 188.003 13.4377 188.266 13.6287C188.529 13.8197 188.879 13.8197 189.58 13.8197H196.502C199.039 13.8197 200.307 13.8197 200.531 14.5106C200.756 15.2016 199.73 15.947 197.678 17.4377L192.078 21.5066C191.511 21.9186 191.227 22.1246 191.127 22.4336C191.026 22.7426 191.135 23.076 191.351 23.7426L193.49 30.3262C194.274 32.7383 194.666 33.9443 194.078 34.3713C193.49 34.7984 192.464 34.053 190.413 32.5623L184.812 28.4934C184.245 28.0814 183.962 27.8754 183.637 27.8754C183.312 27.8754 183.028 28.0814 182.461 28.4934L176.861 32.5623C174.809 34.053 173.783 34.7984 173.195 34.3713C172.608 33.9443 172.999 32.7383 173.783 30.3262L175.922 23.7426C176.139 23.076 176.247 22.7426 176.147 22.4336C176.046 22.1246 175.763 21.9186 175.196 21.5066L169.595 17.4377C167.544 15.947 166.518 15.2016 166.742 14.5106C166.967 13.8197 168.235 13.8197 170.771 13.8197H177.693C178.394 13.8197 178.745 13.8197 179.008 13.6287C179.271 13.4377 179.379 13.1044 179.595 12.4377L181.735 5.8541Z" fill="url(#paint3_linear_374_767)"/>
<defs>
<linearGradient id="paint0_linear_374_767" x1="0" y1="20" x2="41.6522" y2="20" gradientUnits="userSpaceOnUse">
<stop stop-color="#F7BF4B"/>
<stop offset="1" stop-color="#D74333"/>
</linearGradient>
<linearGradient id="paint1_linear_374_767" x1="54.5469" y1="20" x2="96.1991" y2="20" gradientUnits="userSpaceOnUse">
<stop stop-color="#F7BF4B"/>
<stop offset="1" stop-color="#D74333"/>
</linearGradient>
<linearGradient id="paint2_linear_374_767" x1="109.09" y1="20" x2="150.742" y2="20" gradientUnits="userSpaceOnUse">
<stop stop-color="#F7BF4B"/>
<stop offset="1" stop-color="#D74333"/>
</linearGradient>
<linearGradient id="paint3_linear_374_767" x1="163.637" y1="20" x2="205.289" y2="20" gradientUnits="userSpaceOnUse">
<stop stop-color="#F7BF4B"/>
<stop offset="1" stop-color="#D74333"/>
</linearGradient>
</defs>
</svg>
