<svg width="13" height="18" viewBox="0 0 13 18" fill="none" xmlns="http://www.w3.org/2000/svg">
<path d="M11.954 13.4185L9.55321 11.8082C9.4519 11.736 9.33319 11.6921 9.20929 11.6811C9.08539 11.67 8.96078 11.6922 8.84828 11.7452L7.92654 12.2127C7.8109 12.2696 7.68119 12.2915 7.55331 12.2757C7.42542 12.2598 7.30493 12.2071 7.20661 12.1238C5.48334 10.6978 4.32992 8.70001 3.95661 6.49462C3.93365 6.36783 3.94818 6.23709 3.99844 6.11844C4.0487 5.99979 4.13249 5.89839 4.23954 5.82667L5.07878 5.21627C5.18281 5.14775 5.26667 5.05271 5.32171 4.94096C5.37675 4.82921 5.40096 4.7048 5.39187 4.58056L5.19768 1.69622L5.15334 0.957414C5.14533 0.851087 5.11341 0.747942 5.05996 0.655678C4.97424 0.505936 4.83568 0.393616 4.67144 0.340745C4.21853 0.189993 3.73618 0.149494 3.26447 0.222612C2.79276 0.295731 2.3453 0.480355 1.95928 0.761148L1.77077 0.904628L1.67311 0.979485C1.62766 1.01228 1.58401 1.0475 1.54235 1.085L1.42205 1.20064C-0.165767 2.75246 0.132919 6.65379 2.17902 10.5278L2.80152 11.606C5.13042 15.3097 8.35973 17.5191 10.5071 16.9524L10.6674 16.9061C10.7204 16.8889 10.7725 16.8689 10.8233 16.8461L10.9375 16.7998L11.156 16.7083C11.592 16.5142 11.9753 16.2189 12.2743 15.8469C12.5732 15.4748 12.7791 15.0369 12.8748 14.5693C12.9111 14.4007 12.8831 14.2245 12.7963 14.0754C12.7431 13.983 12.6698 13.9038 12.5817 13.8437L11.954 13.4185Z" fill="url(#paint0_linear_374_935)"/>
<defs>
<linearGradient id="paint0_linear_374_935" x1="2.49723" y1="11.0789" x2="9.19848" y2="7.20993" gradientUnits="userSpaceOnUse">
<stop stop-color="#E77207"/>
<stop offset="1" stop-color="#FC9332"/>
</linearGradient>
</defs>
</svg>
