<svg width="20" height="14" viewBox="0 0 20 14" fill="none" xmlns="http://www.w3.org/2000/svg">
<path d="M17.557 0.211182H2.44296C1.09597 0.211182 0 1.30715 0 2.65414V11.3459C0 12.6929 1.09597 13.7889 2.44296 13.7889H17.557C18.904 13.7889 20 12.6929 20 11.3459V2.6544C20.0003 1.30715 18.9043 0.211182 17.557 0.211182ZM16.3633 1.80493L10 5.9046L3.63668 1.80493H16.3633ZM17.557 12.1954H2.44296C1.97466 12.1954 1.59375 11.8142 1.59375 11.3462V2.69956L9.50833 7.78894C9.51895 7.79558 9.53037 7.8001 9.54126 7.80621C9.55269 7.81258 9.56437 7.81869 9.57606 7.82454C9.63742 7.85615 9.70064 7.88165 9.76519 7.89838C9.77183 7.90024 9.77847 7.90104 9.78511 7.90263C9.85603 7.91936 9.92775 7.92972 9.99947 7.92972C9.99973 7.92972 10 7.92972 10 7.92972C10.0005 7.92972 10.0008 7.92972 10.0011 7.92972C10.0728 7.92972 10.1445 7.91963 10.2154 7.90263C10.2221 7.90104 10.2287 7.90024 10.2353 7.89838C10.2999 7.88165 10.3628 7.85615 10.4245 7.82454C10.4362 7.81869 10.4478 7.81258 10.4593 7.80621C10.4702 7.8001 10.4816 7.79558 10.4922 7.78894L18.4068 2.69956V11.3459C18.4065 11.8142 18.0253 12.1954 17.557 12.1954Z" fill="url(#paint0_linear_374_938)"/>
<defs>
<linearGradient id="paint0_linear_374_938" x1="0" y1="7.00004" x2="20.8261" y2="7.00004" gradientUnits="userSpaceOnUse">
<stop stop-color="#E77207"/>
<stop offset="1" stop-color="#FC9332"/>
</linearGradient>
</defs>
</svg>
