<svg width="35" height="35" viewBox="0 0 35 35" fill="none" xmlns="http://www.w3.org/2000/svg">
<g clip-path="url(#clip0_374_820)">
<path d="M31.1307 12.7155C30.2692 11.0385 30.3225 8.92622 31.656 7.59354C32.2263 7.02479 32.2263 6.10167 31.656 5.53146C31.0858 4.96125 30.1642 4.96125 29.594 5.53146C28.2602 6.86437 26.1476 6.91703 24.4695 6.05706C22.9958 5.30181 21.3839 4.77866 19.6835 4.53548C19.2737 4.47687 18.9583 4.13314 18.9583 3.7192C18.9583 3.27597 19.3176 2.91667 19.7609 2.91667H21.875C22.6815 2.91667 23.3333 2.26333 23.3333 1.45833C23.3333 0.653333 22.6815 0 21.875 0H13.125C12.3185 0 11.6667 0.653333 11.6667 1.45833C11.6667 2.26333 12.3185 2.91667 13.125 2.91667H15.239C15.6823 2.91667 16.0417 3.27602 16.0417 3.7193C16.0417 4.13321 15.7264 4.47694 15.3167 4.53566C7.90434 5.59799 2.1875 11.986 2.1875 19.6875C2.1875 28.1313 9.05625 35 17.5 35C25.9438 35 32.8125 28.1313 32.8125 19.6875C32.8125 17.1778 32.2054 14.8078 31.1307 12.7155ZM18.9583 19.6875C18.9583 20.494 18.305 21.1458 17.5 21.1458C16.695 21.1458 16.0417 20.494 16.0417 19.6875V11.6667C16.0417 10.8602 16.695 10.2083 17.5 10.2083C18.305 10.2083 18.9583 10.8602 18.9583 11.6667V19.6875Z" fill="url(#paint0_linear_374_820)"/>
</g>
<defs>
<linearGradient id="paint0_linear_374_820" x1="2.1875" y1="17.5" x2="34.0774" y2="17.5" gradientUnits="userSpaceOnUse">
<stop stop-color="#E88540"/>
<stop offset="1" stop-color="#E37918"/>
</linearGradient>
<clipPath id="clip0_374_820">
<rect width="35" height="35" fill="white"/>
</clipPath>
</defs>
</svg>
